<svg width="348" height="176" viewBox="0 0 348 176" fill="none" xmlns="http://www.w3.org/2000/svg">
<path d="M66.5044 44.4429C66.5044 47.9836 65.9341 51.3104 64.7935 54.4233C63.6766 57.5363 62.0845 60.2453 60.0171 62.5503C57.9497 64.8553 55.4665 66.6732 52.5674 68.0039C49.6921 69.3346 46.4959 70 42.979 70H17.208V62.6929H42.979C45.4979 62.6929 47.7554 62.2176 49.7515 61.2671C51.7713 60.3166 53.4704 59.0215 54.8486 57.3818C56.2507 55.7184 57.32 53.7817 58.0566 51.5718C58.8171 49.3381 59.1973 46.9618 59.1973 44.4429C59.1973 41.924 58.8171 39.5596 58.0566 37.3496C57.32 35.1396 56.2507 33.2148 54.8486 31.5752C53.4704 29.9118 51.7713 28.6048 49.7515 27.6543C47.7554 26.68 45.4979 26.1929 42.979 26.1929H13.5723V70H6.26514V18.8857H42.979C46.4959 18.8857 49.6921 19.563 52.5674 20.9175C55.4665 22.2482 57.9497 24.078 60.0171 26.4067C62.0845 28.7118 63.6766 31.4207 64.7935 34.5337C65.9341 37.6229 66.5044 40.9259 66.5044 44.4429ZM122.217 70H112.272L100.866 59.1284H86.0732V51.8926H106.284C107.306 51.8926 108.268 51.6906 109.171 51.2866C110.074 50.8826 110.858 50.348 111.523 49.6826C112.189 48.9935 112.712 48.1974 113.092 47.2944C113.472 46.3914 113.662 45.4409 113.662 44.4429C113.662 43.4211 113.472 42.4705 113.092 41.5913C112.712 40.6883 112.189 39.9041 111.523 39.2388C110.858 38.5734 110.074 38.0506 109.171 37.6704C108.268 37.2664 107.306 37.0645 106.284 37.0645H82.2593V70H74.9521V29.8643H106.284C108.304 29.8643 110.205 30.2563 111.987 31.0405C113.769 31.8009 115.314 32.8465 116.621 34.1772C117.951 35.4842 118.997 37.0288 119.757 38.811C120.518 40.5695 120.898 42.4468 120.898 44.4429C120.898 46.0825 120.637 47.6628 120.114 49.1836C119.591 50.6807 118.854 52.0589 117.904 53.3184C116.977 54.554 115.872 55.6234 114.589 56.5264C113.306 57.4294 111.904 58.0947 110.383 58.5225L122.217 70ZM136.795 70H129.56V29.8643H136.795V70Z" fill="white"/>
<path d="M207.193 37.1357C207.193 39.6546 206.706 42.0309 205.732 44.2646C204.781 46.4746 203.474 48.4113 201.811 50.0747C200.171 51.7144 198.247 53.0094 196.037 53.96C193.827 54.9105 191.462 55.3857 188.943 55.3857H159.608V48.1855H188.943C190.464 48.1855 191.89 47.9004 193.221 47.3301C194.551 46.736 195.704 45.9399 196.678 44.9419C197.676 43.9438 198.46 42.7795 199.031 41.4487C199.601 40.0942 199.886 38.6566 199.886 37.1357C199.886 35.6149 199.601 34.1891 199.031 32.8584C198.46 31.5277 197.676 30.3752 196.678 29.4009C195.704 28.4028 194.551 27.6187 193.221 27.0483C191.89 26.478 190.464 26.1929 188.943 26.1929H155.509V70H148.202V18.8857H188.943C191.462 18.8857 193.827 19.3729 196.037 20.3472C198.247 21.2977 200.171 22.6047 201.811 24.2681C203.474 25.9077 204.781 27.8325 205.732 30.0425C206.706 32.2524 207.193 34.6169 207.193 37.1357ZM261.302 49.8608C261.302 52.6411 260.862 55.255 259.983 57.7026C259.104 60.1265 257.844 62.2533 256.205 64.083C254.589 65.9128 252.64 67.3623 250.359 68.4316C248.101 69.4772 245.583 70 242.802 70H230.113C227.333 70 224.802 69.4772 222.521 68.4316C220.239 67.3623 218.279 65.9128 216.639 64.083C215.023 62.2533 213.776 60.1265 212.896 57.7026C212.017 55.255 211.578 52.6411 211.578 49.8608C211.578 47.1043 212.017 44.5142 212.896 42.0903C213.776 39.6665 215.023 37.5516 216.639 35.7456C218.279 33.9159 220.239 32.4782 222.521 31.4326C224.802 30.387 227.333 29.8643 230.113 29.8643H242.802C245.583 29.8643 248.101 30.387 250.359 31.4326C252.64 32.4782 254.589 33.9159 256.205 35.7456C257.844 37.5516 259.104 39.6665 259.983 42.0903C260.862 44.5142 261.302 47.1043 261.302 49.8608ZM253.995 49.8608C253.995 48.1024 253.733 46.4508 253.21 44.9062C252.711 43.3379 251.975 41.9834 251 40.8428C250.05 39.6784 248.886 38.7635 247.507 38.0981C246.129 37.409 244.561 37.0645 242.802 37.0645H230.113C228.354 37.0645 226.774 37.409 225.372 38.0981C223.994 38.7635 222.818 39.6784 221.843 40.8428C220.893 41.9834 220.156 43.3379 219.633 44.9062C219.134 46.4508 218.885 48.1024 218.885 49.8608C218.885 51.6193 219.134 53.2827 219.633 54.8511C220.156 56.3957 220.893 57.7502 221.843 58.9146C222.818 60.0789 223.994 61.0057 225.372 61.6948C226.774 62.3602 228.354 62.6929 230.113 62.6929H242.802C244.561 62.6929 246.129 62.3602 247.507 61.6948C248.886 61.0057 250.05 60.0789 251 58.9146C251.975 57.7502 252.711 56.3957 253.21 54.8511C253.733 53.2827 253.995 51.6193 253.995 49.8608ZM316.979 49.7896C316.979 52.6174 316.527 55.2669 315.624 57.7383C314.721 60.1859 313.45 62.3245 311.81 64.1543C310.17 65.9603 308.186 67.3861 305.857 68.4316C303.552 69.4772 300.998 70 298.194 70H280.265V62.6216H298.194C299.976 62.6216 301.568 62.2889 302.97 61.6235C304.372 60.9582 305.56 60.0552 306.535 58.9146C307.533 57.7502 308.293 56.3957 308.816 54.8511C309.339 53.2827 309.6 51.5955 309.6 49.7896C309.6 48.0073 309.339 46.3439 308.816 44.7993C308.293 43.2547 307.533 41.9121 306.535 40.7715C305.56 39.6309 304.372 38.7279 302.97 38.0625C301.568 37.3971 299.976 37.0645 298.194 37.0645H276.807V70H269.357V29.7217H298.194C300.998 29.7217 303.552 30.2445 305.857 31.29C308.186 32.3356 310.17 33.7614 311.81 35.5674C313.45 37.3734 314.721 39.5002 315.624 41.9478C316.527 44.3716 316.979 46.9855 316.979 49.7896Z" fill="#CCFF00"/>
<g clip-path="url(#clip0_202_51)">
<path d="M304.443 104.455C269.147 89.2918 247.018 105.034 227.393 117.444L232.174 124.279L240.988 118.818C242.197 120.562 243.57 122.219 244.787 123.096C281.972 149.892 333.524 99.7322 333.524 99.7322C325.272 104.057 301 87.8505 281.662 79.0512C262.324 70.2519 245.21 79.7468 240.339 86.5076C235.467 93.2685 237.119 103.447 237.119 103.447C270.638 80.095 304.443 104.455 304.443 104.455Z" fill="url(#paint0_linear_202_51)"/>
</g>
<path d="M17.7786 106.3C17.4186 106.3 17.1386 106.2 16.9386 106C16.7586 105.78 16.6686 105.48 16.6686 105.1V86.86H9.79859C9.43859 86.86 9.14859 86.79 8.92859 86.65C8.72859 86.49 8.62859 86.26 8.62859 85.96C8.62859 85.32 9.01859 85 9.79859 85H25.8186C26.5986 85 26.9886 85.32 26.9886 85.96C26.9886 86.24 26.8886 86.46 26.6886 86.62C26.4886 86.78 26.1986 86.86 25.8186 86.86H18.9486V105.1C18.9486 105.48 18.8386 105.78 18.6186 106C18.4186 106.2 18.1386 106.3 17.7786 106.3ZM31.5685 106.3C29.6085 106.3 28.0685 105.87 26.9485 105.01C25.8485 104.15 25.2985 102.96 25.2985 101.44C25.2985 99.94 25.8785 98.75 27.0385 97.87C28.2185 96.99 29.8185 96.55 31.8385 96.55C33.0185 96.55 34.0585 96.71 34.9585 97.03C35.8785 97.35 36.5885 97.78 37.0885 98.32V96.4C37.0885 95.26 36.7085 94.39 35.9485 93.79C35.2085 93.19 34.1185 92.89 32.6785 92.89C30.8185 92.89 29.2085 93.33 27.8485 94.21C27.5085 94.41 27.2285 94.51 27.0085 94.51C26.8085 94.51 26.6085 94.43 26.4085 94.27C26.1885 94.09 26.0785 93.86 26.0785 93.58C26.0785 93.28 26.2085 93.03 26.4685 92.83C27.1885 92.27 28.0985 91.83 29.1985 91.51C30.3185 91.17 31.4585 91 32.6185 91C34.7385 91 36.3785 91.48 37.5385 92.44C38.7185 93.4 39.3085 94.75 39.3085 96.49V105.13C39.3085 105.91 38.9485 106.3 38.2285 106.3C37.9085 106.3 37.6485 106.2 37.4485 106C37.2485 105.78 37.1485 105.5 37.1485 105.16V104.08C35.9085 105.56 34.0485 106.3 31.5685 106.3ZM31.8385 104.47C33.3985 104.47 34.6685 104.18 35.6485 103.6C36.6285 103 37.1185 102.23 37.1185 101.29C37.1185 100.35 36.6585 99.63 35.7385 99.13C34.8385 98.61 33.5585 98.35 31.8985 98.35C30.4985 98.35 29.4185 98.62 28.6585 99.16C27.8985 99.68 27.5185 100.44 27.5185 101.44C27.5185 102.42 27.8885 103.17 28.6285 103.69C29.3685 104.21 30.4385 104.47 31.8385 104.47ZM44.4137 106.3C44.0737 106.3 43.8037 106.2 43.6037 106C43.4237 105.78 43.3337 105.48 43.3337 105.1V84.43C43.3337 84.05 43.4237 83.76 43.6037 83.56C43.8037 83.34 44.0737 83.23 44.4137 83.23C44.7537 83.23 45.0237 83.34 45.2237 83.56C45.4237 83.76 45.5237 84.05 45.5237 84.43L45.5537 94.06C47.2337 92.02 49.3837 91 52.0037 91C53.6237 91 55.0337 91.31 56.2337 91.93C57.4337 92.55 58.3537 93.44 58.9937 94.6C59.6537 95.74 59.9837 97.09 59.9837 98.65C59.9837 101.09 59.2837 102.98 57.8837 104.32C56.4837 105.64 54.5137 106.3 51.9737 106.3C49.1537 106.3 47.0037 105.26 45.5237 103.18V105.1C45.5237 105.46 45.4237 105.75 45.2237 105.97C45.0437 106.19 44.7737 106.3 44.4137 106.3ZM51.8237 104.41C53.7837 104.41 55.2637 103.93 56.2637 102.97C57.2637 101.99 57.7637 100.55 57.7637 98.65C57.7637 96.85 57.2337 95.44 56.1737 94.42C55.1137 93.4 53.6637 92.89 51.8237 92.89C50.6237 92.89 49.5437 93.14 48.5837 93.64C47.6237 94.12 46.8737 94.8 46.3337 95.68C45.7937 96.56 45.5237 97.55 45.5237 98.65C45.5237 100.43 46.0837 101.84 47.2037 102.88C48.3237 103.9 49.8637 104.41 51.8237 104.41ZM68.8634 106.3C66.9034 106.3 65.3634 105.87 64.2434 105.01C63.1434 104.15 62.5934 102.96 62.5934 101.44C62.5934 99.94 63.1734 98.75 64.3334 97.87C65.5134 96.99 67.1134 96.55 69.1334 96.55C70.3134 96.55 71.3534 96.71 72.2534 97.03C73.1734 97.35 73.8834 97.78 74.3834 98.32V96.4C74.3834 95.26 74.0034 94.39 73.2434 93.79C72.5034 93.19 71.4134 92.89 69.9734 92.89C68.1134 92.89 66.5034 93.33 65.1434 94.21C64.8034 94.41 64.5234 94.51 64.3034 94.51C64.1034 94.51 63.9034 94.43 63.7034 94.27C63.4834 94.09 63.3734 93.86 63.3734 93.58C63.3734 93.28 63.5034 93.03 63.7634 92.83C64.4834 92.27 65.3934 91.83 66.4934 91.51C67.6134 91.17 68.7534 91 69.9134 91C72.0334 91 73.6734 91.48 74.8334 92.44C76.0134 93.4 76.6034 94.75 76.6034 96.49V105.13C76.6034 105.91 76.2434 106.3 75.5234 106.3C75.2034 106.3 74.9434 106.2 74.7434 106C74.5434 105.78 74.4434 105.5 74.4434 105.16V104.08C73.2034 105.56 71.3434 106.3 68.8634 106.3ZM69.1334 104.47C70.6934 104.47 71.9634 104.18 72.9434 103.6C73.9234 103 74.4134 102.23 74.4134 101.29C74.4134 100.35 73.9534 99.63 73.0334 99.13C72.1334 98.61 70.8534 98.35 69.1934 98.35C67.7934 98.35 66.7134 98.62 65.9534 99.16C65.1934 99.68 64.8134 100.44 64.8134 101.44C64.8134 102.42 65.1834 103.17 65.9234 103.69C66.6634 104.21 67.7334 104.47 69.1334 104.47ZM87.9486 106.3C86.3486 106.3 84.9386 105.99 83.7186 105.37C82.4986 104.73 81.5586 103.83 80.8986 102.67C80.2386 101.51 79.9086 100.16 79.9086 98.62C79.9086 97.1 80.2386 95.77 80.8986 94.63C81.5586 93.47 82.4986 92.58 83.7186 91.96C84.9386 91.32 86.3486 91 87.9486 91C89.4486 91 90.7486 91.21 91.8486 91.63C92.9486 92.05 93.8186 92.67 94.4586 93.49C94.6186 93.71 94.6986 93.92 94.6986 94.12C94.6986 94.42 94.5486 94.69 94.2486 94.93C94.1086 95.05 93.9286 95.11 93.7086 95.11C93.3686 95.11 93.0486 94.96 92.7486 94.66C91.6886 93.48 90.0886 92.89 87.9486 92.89C86.0886 92.89 84.6486 93.39 83.6286 94.39C82.6286 95.37 82.1286 96.78 82.1286 98.62C82.1286 100.44 82.6386 101.86 83.6586 102.88C84.6786 103.9 86.1086 104.41 87.9486 104.41C88.9686 104.41 89.9086 104.26 90.7686 103.96C91.6286 103.64 92.3386 103.19 92.8986 102.61C93.2386 102.27 93.5586 102.1 93.8586 102.1C94.0386 102.1 94.2386 102.18 94.4586 102.34C94.7386 102.58 94.8786 102.84 94.8786 103.12C94.8786 103.38 94.7686 103.6 94.5486 103.78C93.5686 104.66 92.5486 105.3 91.4886 105.7C90.4286 106.1 89.2486 106.3 87.9486 106.3ZM103.024 106.3C101.064 106.3 99.5236 105.87 98.4036 105.01C97.3036 104.15 96.7536 102.96 96.7536 101.44C96.7536 99.94 97.3336 98.75 98.4936 97.87C99.6736 96.99 101.274 96.55 103.294 96.55C104.474 96.55 105.514 96.71 106.414 97.03C107.334 97.35 108.044 97.78 108.544 98.32V96.4C108.544 95.26 108.164 94.39 107.404 93.79C106.664 93.19 105.574 92.89 104.134 92.89C102.274 92.89 100.664 93.33 99.3036 94.21C98.9636 94.41 98.6836 94.51 98.4636 94.51C98.2636 94.51 98.0636 94.43 97.8636 94.27C97.6436 94.09 97.5336 93.86 97.5336 93.58C97.5336 93.28 97.6636 93.03 97.9236 92.83C98.6436 92.27 99.5536 91.83 100.654 91.51C101.774 91.17 102.914 91 104.074 91C106.194 91 107.834 91.48 108.994 92.44C110.174 93.4 110.764 94.75 110.764 96.49V105.13C110.764 105.91 110.404 106.3 109.684 106.3C109.364 106.3 109.104 106.2 108.904 106C108.704 105.78 108.604 105.5 108.604 105.16V104.08C107.364 105.56 105.504 106.3 103.024 106.3ZM103.294 104.47C104.854 104.47 106.124 104.18 107.104 103.6C108.084 103 108.574 102.23 108.574 101.29C108.574 100.35 108.114 99.63 107.194 99.13C106.294 98.61 105.014 98.35 103.354 98.35C101.954 98.35 100.874 98.62 100.114 99.16C99.3536 99.68 98.9736 100.44 98.9736 101.44C98.9736 102.42 99.3436 103.17 100.084 103.69C100.824 104.21 101.894 104.47 103.294 104.47ZM115.929 106.3C115.589 106.3 115.319 106.2 115.119 106C114.939 105.78 114.849 105.48 114.849 105.1V92.2C114.849 91.82 114.939 91.53 115.119 91.33C115.299 91.11 115.569 91 115.929 91C116.269 91 116.529 91.11 116.709 91.33C116.909 91.53 117.009 91.82 117.009 92.2V94C118.369 92.2 120.249 91.3 122.649 91.3H123.399C123.779 91.3 124.079 91.39 124.299 91.57C124.519 91.73 124.629 91.96 124.629 92.26C124.629 92.56 124.519 92.79 124.299 92.95C124.079 93.11 123.779 93.19 123.399 93.19H122.559C120.859 93.19 119.509 93.68 118.509 94.66C117.529 95.62 117.039 96.93 117.039 98.59V105.1C117.039 105.46 116.939 105.75 116.739 105.97C116.559 106.19 116.289 106.3 115.929 106.3ZM128.626 87.82C128.186 87.82 127.806 87.68 127.486 87.4C127.186 87.1 127.036 86.74 127.036 86.32C127.036 85.9 127.186 85.54 127.486 85.24C127.806 84.94 128.186 84.79 128.626 84.79C129.066 84.79 129.446 84.95 129.766 85.27C130.106 85.57 130.276 85.92 130.276 86.32C130.276 86.72 130.106 87.07 129.766 87.37C129.446 87.67 129.066 87.82 128.626 87.82ZM128.626 106.3C128.286 106.3 128.016 106.2 127.816 106C127.636 105.78 127.546 105.48 127.546 105.1V92.2C127.546 91.82 127.636 91.53 127.816 91.33C128.016 91.11 128.286 91 128.626 91C128.986 91 129.256 91.11 129.436 91.33C129.636 91.53 129.736 91.82 129.736 92.2V105.1C129.736 105.48 129.636 105.78 129.436 106C129.256 106.2 128.986 106.3 128.626 106.3ZM139.996 106.3C138.036 106.3 136.496 105.87 135.376 105.01C134.276 104.15 133.726 102.96 133.726 101.44C133.726 99.94 134.306 98.75 135.466 97.87C136.646 96.99 138.246 96.55 140.266 96.55C141.446 96.55 142.486 96.71 143.386 97.03C144.306 97.35 145.016 97.78 145.516 98.32V96.4C145.516 95.26 145.136 94.39 144.376 93.79C143.636 93.19 142.546 92.89 141.106 92.89C139.246 92.89 137.636 93.33 136.276 94.21C135.936 94.41 135.656 94.51 135.436 94.51C135.236 94.51 135.036 94.43 134.836 94.27C134.616 94.09 134.506 93.86 134.506 93.58C134.506 93.28 134.636 93.03 134.896 92.83C135.616 92.27 136.526 91.83 137.626 91.51C138.746 91.17 139.886 91 141.046 91C143.166 91 144.806 91.48 145.966 92.44C147.146 93.4 147.736 94.75 147.736 96.49V105.13C147.736 105.91 147.376 106.3 146.656 106.3C146.336 106.3 146.076 106.2 145.876 106C145.676 105.78 145.576 105.5 145.576 105.16V104.08C144.336 105.56 142.476 106.3 139.996 106.3ZM140.266 104.47C141.826 104.47 143.096 104.18 144.076 103.6C145.056 103 145.546 102.23 145.546 101.29C145.546 100.35 145.086 99.63 144.166 99.13C143.266 98.61 141.986 98.35 140.326 98.35C138.926 98.35 137.846 98.62 137.086 99.16C136.326 99.68 135.946 100.44 135.946 101.44C135.946 102.42 136.316 103.17 137.056 103.69C137.796 104.21 138.866 104.47 140.266 104.47Z" fill="white"/>
<defs>
<linearGradient id="paint0_linear_202_51" x1="299.72" y1="75.3727" x2="253.437" y2="139.601" gradientUnits="userSpaceOnUse">
<stop stop-color="white"/>
<stop offset="1" stop-color="#CCFF00"/>
</linearGradient>
<clipPath id="clip0_202_51">
<rect width="100" height="100" fill="white" transform="translate(266.463 36) rotate(35.7767)"/>
</clipPath>
</defs>
</svg>
